<svg width="266" height="30" viewBox="0 0 266 30" fill="none" xmlns="http://www.w3.org/2000/svg">
<path d="M3.28 20.68C3.28 24.68 5.44 26.68 9.76 26.68C12 26.68 13.68 26.2133 14.8 25.28C15.9467 24.32 16.52 22.7867 16.52 20.68V1.32H19.56V20.6C19.56 23.6933 18.7333 25.9333 17.08 27.32C15.4533 28.7067 13.04 29.4 9.84 29.4C6.64 29.4 4.22667 28.7067 2.6 27.32C1 25.9333 0.2 23.6933 0.2 20.6V1.32H3.28V20.68ZM28.6222 29H25.6222V9H28.5822V10.4C30.7422 9.2 32.8089 8.6 34.7822 8.6C37.4489 8.6 39.2355 9.32 40.1422 10.76C41.0755 12.2 41.5422 14.76 41.5422 18.44V29H38.5822V18.52C38.5822 15.7467 38.3022 13.8533 37.7422 12.84C37.2089 11.8 36.0489 11.28 34.2622 11.28C33.4089 11.28 32.5022 11.4133 31.5422 11.68C30.6089 11.92 29.8889 12.16 29.3822 12.4L28.6222 12.76V29ZM47.1066 29V9H50.1066V29H47.1066ZM47.1066 4.48V0.999998H50.1066V4.48H47.1066ZM53.9766 9H57.1766L61.8566 26.4H63.3366L68.1766 9H71.2566L65.6166 29H59.6166L53.9766 9ZM88.3628 26.52L89.5228 26.4L89.6028 28.76C86.5628 29.1867 83.9628 29.4 81.8028 29.4C78.9228 29.4 76.8828 28.5733 75.6828 26.92C74.4828 25.24 73.8828 22.64 73.8828 19.12C73.8828 12.1067 76.6695 8.6 82.2428 8.6C84.9361 8.6 86.9495 9.36 88.2828 10.88C89.6161 12.3733 90.2828 14.7333 90.2828 17.96L90.1228 20.24H76.9228C76.9228 22.4533 77.3228 24.0933 78.1228 25.16C78.9228 26.2267 80.3095 26.76 82.2828 26.76C84.2828 26.76 86.3095 26.68 88.3628 26.52ZM87.2828 17.84C87.2828 15.3867 86.8828 13.6533 86.0828 12.64C85.3095 11.6267 84.0295 11.12 82.2428 11.12C80.4828 11.12 79.1495 11.6533 78.2428 12.72C77.3628 13.7867 76.9095 15.4933 76.8828 17.84H87.2828ZM94.9581 29V9H97.9181V11.72C100.238 10.12 102.678 9.06667 105.238 8.56V11.6C104.118 11.8133 102.945 12.1467 101.718 12.6C100.518 13.0533 99.5981 13.4533 98.9581 13.8L97.9581 14.32V29H94.9581ZM115.066 11.28C112.16 11.28 110.706 12.2933 110.706 14.32C110.706 15.2533 111.04 15.92 111.706 16.32C112.373 16.6933 113.893 17.0933 116.266 17.52C118.64 17.92 120.32 18.4933 121.306 19.24C122.293 19.9867 122.786 21.3867 122.786 23.44C122.786 25.4933 122.12 27 120.786 27.96C119.48 28.92 117.56 29.4 115.026 29.4C113.373 29.4 111.426 29.2133 109.186 28.84L107.986 28.64L108.146 26.04C111.186 26.4933 113.48 26.72 115.026 26.72C116.573 26.72 117.746 26.48 118.546 26C119.373 25.4933 119.786 24.6667 119.786 23.52C119.786 22.3467 119.44 21.56 118.746 21.16C118.053 20.7333 116.533 20.3333 114.186 19.96C111.84 19.5867 110.173 19.04 109.186 18.32C108.2 17.6 107.706 16.2667 107.706 14.32C107.706 12.3733 108.386 10.9333 109.746 10C111.133 9.06667 112.853 8.6 114.906 8.6C116.533 8.6 118.573 8.78667 121.026 9.16L122.146 9.36L122.066 11.92C119.106 11.4933 116.773 11.28 115.066 11.28ZM126.5 18.96C126.5 15.3067 127.153 12.6667 128.46 11.04C129.767 9.41333 131.967 8.6 135.06 8.6C138.18 8.6 140.38 9.41333 141.66 11.04C142.967 12.6667 143.62 15.3067 143.62 18.96C143.62 22.6133 143.007 25.2667 141.78 26.92C140.553 28.5733 138.313 29.4 135.06 29.4C131.807 29.4 129.567 28.5733 128.34 26.92C127.113 25.2667 126.5 22.6133 126.5 18.96ZM129.58 18.92C129.58 21.8267 129.927 23.8667 130.62 25.04C131.34 26.2133 132.82 26.8 135.06 26.8C137.327 26.8 138.807 26.2267 139.5 25.08C140.193 23.9067 140.54 21.8533 140.54 18.92C140.54 15.9867 140.153 13.9733 139.38 12.88C138.607 11.76 137.167 11.2 135.06 11.2C132.98 11.2 131.54 11.76 130.74 12.88C129.967 13.9733 129.58 15.9867 129.58 18.92ZM168.782 17.6V14.84H176.422V28.44C173.062 29.08 170.062 29.4 167.422 29.4C163.395 29.4 160.595 28.24 159.022 25.92C157.475 23.6 156.702 20.0267 156.702 15.2C156.702 10.3467 157.475 6.76 159.022 4.44C160.595 2.09333 163.369 0.919999 167.342 0.919999C169.822 0.919999 172.395 1.18667 175.062 1.72L176.422 1.96L176.302 4.52C172.995 3.96 170.129 3.68 167.702 3.68C164.635 3.68 162.569 4.57333 161.502 6.36C160.435 8.12 159.902 11.0667 159.902 15.2C159.902 19.3067 160.435 22.2533 161.502 24.04C162.569 25.8 164.622 26.68 167.662 26.68C169.529 26.68 171.435 26.4933 173.382 26.12V17.6H168.782ZM196.07 15.04V25.28C196.15 26.2667 196.924 26.8533 198.39 27.04L198.27 29.4C196.164 29.4 194.577 28.8667 193.51 27.8C191.11 28.8667 188.71 29.4 186.31 29.4C184.47 29.4 183.07 28.88 182.11 27.84C181.15 26.8 180.67 25.3067 180.67 23.36C180.67 21.4133 181.164 19.9867 182.15 19.08C183.137 18.1467 184.684 17.5733 186.79 17.36L193.07 16.76V15.04C193.07 13.68 192.777 12.7067 192.19 12.12C191.604 11.5333 190.804 11.24 189.79 11.24C187.657 11.24 185.444 11.3733 183.15 11.64L181.91 11.76L181.79 9.48C184.724 8.89333 187.324 8.6 189.59 8.6C191.857 8.6 193.497 9.12 194.51 10.16C195.55 11.2 196.07 12.8267 196.07 15.04ZM183.75 23.2C183.75 25.6533 184.764 26.88 186.79 26.88C188.604 26.88 190.39 26.5733 192.15 25.96L193.07 25.64V19.04L187.15 19.6C185.95 19.7067 185.084 20.0533 184.55 20.64C184.017 21.2267 183.75 22.08 183.75 23.2ZM204.989 29H201.989V9H204.949V10.4C206.949 9.2 208.896 8.6 210.789 8.6C213.269 8.6 215.003 9.28 215.989 10.64C216.869 10.1067 218.003 9.64 219.389 9.24C220.803 8.81333 222.043 8.6 223.109 8.6C225.776 8.6 227.563 9.32 228.469 10.76C229.403 12.1733 229.869 14.7333 229.869 18.44V29H226.869V18.52C226.869 15.7467 226.603 13.8533 226.069 12.84C225.536 11.8 224.403 11.28 222.669 11.28C221.789 11.28 220.883 11.4133 219.949 11.68C219.016 11.92 218.296 12.16 217.789 12.4L217.029 12.76C217.376 13.64 217.549 15.5867 217.549 18.6V29H214.549V18.68C214.549 15.8 214.283 13.8533 213.749 12.84C213.243 11.8 212.109 11.28 210.349 11.28C209.496 11.28 208.616 11.4133 207.709 11.68C206.829 11.92 206.149 12.16 205.669 12.4L204.989 12.76V29ZM249.027 26.52L250.187 26.4L250.267 28.76C247.227 29.1867 244.627 29.4 242.467 29.4C239.587 29.4 237.547 28.5733 236.347 26.92C235.147 25.24 234.547 22.64 234.547 19.12C234.547 12.1067 237.334 8.6 242.907 8.6C245.6 8.6 247.614 9.36 248.947 10.88C250.28 12.3733 250.947 14.7333 250.947 17.96L250.787 20.24H237.587C237.587 22.4533 237.987 24.0933 238.787 25.16C239.587 26.2267 240.974 26.76 242.947 26.76C244.947 26.76 246.974 26.68 249.027 26.52ZM247.947 17.84C247.947 15.3867 247.547 13.6533 246.747 12.64C245.974 11.6267 244.694 11.12 242.907 11.12C241.147 11.12 239.814 11.6533 238.907 12.72C238.027 13.7867 237.574 15.4933 237.547 17.84H247.947ZM255.622 29V9H258.582V11.72C260.902 10.12 263.342 9.06667 265.902 8.56V11.6C264.782 11.8133 263.609 12.1467 262.382 12.6C261.182 13.0533 260.262 13.4533 259.622 13.8L258.622 14.32V29H255.622Z" fill="white"/>
</svg>
